<?xml version="1.0" encoding="UTF-8"?>
<!DOCTYPE svg PUBLIC "-//W3C//DTD SVG 1.1//EN" "http://www.w3.org/Graphics/SVG/1.1/DTD/svg11.dtd">
<!-- Creator: CorelDRAW 2019 (64-Bit) -->
<svg xmlns="http://www.w3.org/2000/svg" xml:space="preserve" width="51.0496mm" height="35.0966mm" version="1.1" style="shape-rendering:geometricPrecision; text-rendering:geometricPrecision; image-rendering:optimizeQuality; fill-rule:evenodd; clip-rule:evenodd"
viewBox="0 0 3868.33 2659.48"
 xmlns:xlink="http://www.w3.org/1999/xlink"
 xmlns:xodm="http://www.corel.com/coreldraw/odm/2003">
 <defs>
  <style type="text/css">
   <![CDATA[
    .fil0 {fill:#CC6633;fill-rule:nonzero}
   ]]>
  </style>
 </defs>
 <g id="Layer_x0020_1">
  <metadata id="CorelCorpID_0Corel-Layer"/>
  <g id="_1628755429504">
   <path class="fil0" d="M3565.95 0c81.38,0 155.93,31.51 213.41,88.97 57.46,57.48 88.97,132.03 88.97,213.41l0 2054.72c0,81.38 -31.51,155.93 -88.97,213.41 -57.48,57.46 -132.03,88.97 -213.41,88.97l-3263.58 0c-81.38,0 -155.93,-31.51 -213.41,-88.97 -57.46,-57.48 -88.97,-132.03 -88.97,-213.41l0 -2054.72c0,-81.38 31.51,-155.93 88.97,-213.41 57.48,-57.46 132.03,-88.97 213.41,-88.97l3263.58 0zm-3263.58 241.77c-35.94,0 -60.61,24.67 -60.61,60.61l0 422.94 3384.79 0 0 -422.94c0,-35.94 -24.67,-60.61 -60.61,-60.61l-3263.58 0zm3263.58 2175.93c35.94,0 60.61,-24.67 60.61,-60.61l0 -1390.02 -3384.79 0 0 1390.02c0,35.94 24.67,60.61 60.61,60.61l3263.58 0z"/>
   <path class="fil0" d="M871.26 2168.26c-30.61,-30.44 -57.75,-63.66 -81.58,-99.32 -23.83,-35.66 -43.84,-73.06 -59.84,-112.03 -16.18,-39.14 -28.52,-79.66 -37.05,-121.94 -8.52,-42.09 -12.7,-84.71 -12.7,-127.85 0,-43.49 4.18,-86.28 12.7,-128.2 8.52,-41.93 20.87,-82.45 37.05,-121.59 16,-38.96 36.01,-76.37 59.84,-112.03 23.83,-35.66 50.97,-68.88 81.58,-99.32l46.27 46.27c-27.48,27.48 -52,57.4 -73.4,89.41 -21.39,32.18 -39.31,65.75 -53.92,100.89 -14.61,35.31 -25.74,71.67 -33.23,109.41 -7.48,37.75 -11.13,76.02 -11.13,115.16 0,39.14 3.65,77.41 11.13,115.16 7.49,37.74 18.62,74.1 33.23,109.41 14.61,35.14 32.53,68.71 53.92,100.89 21.4,32.01 45.92,61.92 73.4,89.41l-46.27 46.27zm4.52 -461.13c0,-61.23 11.48,-119.51 34.61,-174.81 23.13,-55.32 56.01,-104.72 98.98,-148.21l46.27 46.28c-37.05,37.05 -65.4,79.31 -85.06,126.98 -19.66,47.49 -29.57,97.41 -29.57,149.77 0,52.36 9.91,102.28 29.57,149.77 19.66,47.66 48.01,89.93 85.06,126.98l-46.27 46.28c-42.96,-43.49 -75.84,-92.89 -98.98,-148.21 -23.13,-55.31 -34.61,-113.59 -34.61,-174.81zm272.06 184.56c-24.7,-24.88 -43.66,-53.06 -56.71,-84.71 -13.04,-31.48 -19.66,-64.89 -19.66,-99.85 0,-34.96 6.62,-68.36 19.66,-99.85 13.05,-31.65 32.01,-59.83 56.71,-84.54l45.92 45.75c-18.26,18.44 -32.36,39.49 -42.27,63.49 -9.92,24.01 -14.78,49.06 -14.78,75.15 0,26.09 4.86,51.14 14.78,75.15 9.91,24.01 24.01,45.05 42.27,63.49l-45.92 45.92z"/>
  </g>
 </g>
</svg>
